<svg xmlns="http://www.w3.org/2000/svg" viewBox="0 0 512 512">
  <rect width="512" height="512" rx="96" fill="#2563eb"/>
  <rect x="80" y="80" width="352" height="352" rx="64" fill="#1d4ed8"/>
  <!-- QR corner squares -->
  <rect x="120" y="120" width="100" height="100" rx="12" fill="white"/>
  <rect x="136" y="136" width="68" height="68" rx="8" fill="#1d4ed8"/>
  <rect x="148" y="148" width="44" height="44" rx="4" fill="white"/>
  <rect x="292" y="120" width="100" height="100" rx="12" fill="white"/>
  <rect x="308" y="136" width="68" height="68" rx="8" fill="#1d4ed8"/>
  <rect x="320" y="148" width="44" height="44" rx="4" fill="white"/>
  <rect x="120" y="292" width="100" height="100" rx="12" fill="white"/>
  <rect x="136" y="308" width="68" height="68" rx="8" fill="#1d4ed8"/>
  <rect x="148" y="320" width="44" height="44" rx="4" fill="white"/>
  <!-- QR data dots -->
  <rect x="260" y="120" width="20" height="20" rx="4" fill="white"/>
  <rect x="260" y="152" width="20" height="20" rx="4" fill="white"/>
  <rect x="292" y="260" width="20" height="20" rx="4" fill="white"/>
  <rect x="324" y="260" width="20" height="20" rx="4" fill="white"/>
  <rect x="356" y="260" width="20" height="20" rx="4" fill="white"/>
  <rect x="292" y="292" width="20" height="20" rx="4" fill="white"/>
  <rect x="356" y="292" width="20" height="20" rx="4" fill="white"/>
  <rect x="292" y="324" width="20" height="20" rx="4" fill="white"/>
  <rect x="324" y="324" width="20" height="20" rx="4" fill="white"/>
  <rect x="356" y="356" width="20" height="20" rx="4" fill="white"/>
  <!-- Letter A overlay -->
  <text x="256" y="390" font-family="Arial,sans-serif" font-size="72" font-weight="900" text-anchor="middle" fill="white" opacity="0">A</text>
</svg>
